<?xml version="1.0" encoding="UTF-8" standalone="no"?>
<svg width="73px" height="154px" viewBox="0 0 73 154" version="1.1" xmlns="http://www.w3.org/2000/svg" xmlns:xlink="http://www.w3.org/1999/xlink">
    <!-- Generator: Sketch 40.3 (33839) - http://www.bohemiancoding.com/sketch -->
    <title>man-me@2x</title>
    <desc>Created with Sketch.</desc>
    <defs></defs>
    <g id="Page-1" stroke="none" stroke-width="1" fill="none" fill-rule="evenodd">
        <g id="Group-2">
            <g id="Group" transform="translate(0.659091, 63.000000)" fill="#FCD0A3"><!--Ear-->
                <path d="M5.86677977,16.003 C2.83524391,16.003 0.0560834134,12.57 0.0560834134,8.336 C0.0560834134,4.102 2.83524391,0.669 5.86677977,0.669 L5.86677977,16.003 L5.86677977,16.003 Z" id="Shape"></path>
                <path d="M64.981729,16.003 C68.0132649,16.003 70.7924254,12.57 70.7924254,8.336 C70.7924254,4.102 68.0132649,0.669 64.981729,0.669 L64.981729,16.003 L64.981729,16.003 Z" id="Shape"></path>
            </g>
            <path d="M41.7959659,125.7 L35.421,125.7 C34.2448523,125.7 33.0847386,125.763 31.9425455,125.874 L45.2734773,125.874 C44.1322273,125.763 42.9721136,125.7 41.7959659,125.7 L41.7959659,125.7 Z" id="Shape" fill="#58B99B"></path>
            <g id="Group" transform="translate(5.000000, 5.000000)" fill="#FCD0A3"><!--Face-->
                <rect id="Rectangle-path" x="28.6186594" y="101.249516" width="5.44920937" height="19.9841719"></rect>
                <path d="M30.7385029,106.772875 L30.7385029,106.772875 C14.0259051,106.772875 0.47776875,90.0856964 0.47776875,69.5020241 L0.47776875,37.5558488 C0.47776875,16.9721765 14.0259051,0.2859375 30.7385029,0.2859375 L30.7385029,0.2859375 C47.4511007,0.2859375 61,16.9721765 61,37.5567884 L61,69.5029637 C61,90.0856964 47.4511007,106.772875 30.7385029,106.772875 L30.7385029,106.772875 Z" id="Shape"></path>
                <path d="M14.5486031,98.34725 C9.96389062,91.3265313 8.6060625,83.021 8.447325,74.2103125 C8.29014375,65.4825469 8.24112188,57.5449219 8.67609375,48.7961875 C9.09861562,40.2971719 10.4797875,31.9821094 13.9782375,24.9632969 C18.7909406,15.3100469 27.4600313,6.20389063 35.7564,0.67671875 C34.3153125,0.4231875 32.8423219,0.2859375 31.342875,0.2859375 L31.342875,0.2859375 C14.2964906,0.2859375 0.47776875,17.2124844 0.47776875,38.0935469 L0.47776875,70.4997969 C0.47776875,87.6760625 9.8323875,102.169281 22.6395469,106.772875 C19.5698438,104.583547 16.8075,101.806141 14.5486031,98.34725 L14.5486031,98.34725 Z" id="Shape" opacity="0.16"></path>
            </g>
            <path d="M72.1315227,149.369 C72.0947386,149.001 72.0494659,148.635 71.9938182,148.271 C71.7250114,146.524 71.2515341,144.833 70.5969659,143.212 C70.2998636,142.477 69.9678636,141.755 69.5971932,141.051 C68.6389205,139.232 67.4429659,137.524 66.0423409,135.955 C65.3443864,135.174 64.5936136,134.43 63.7985114,133.722 C61.3160568,131.509 58.380875,129.67 55.1165227,128.315 C52.3888409,127.181 49.4253636,126.409 46.3156932,126.013 C46.325125,125.897 46.3402159,125.784 46.3402159,125.662 C46.3402159,124.3 45.298,123.195 44.0124432,123.195 L42.5806932,123.454 C39.9784545,123.924 37.3205682,123.924 34.7192727,123.454 L33.2875227,123.195 C32.0019659,123.195 30.9606932,124.3 30.9606932,125.662 C30.9606932,125.779 30.9767273,125.889 30.9861591,126.002 C27.8453636,126.393 24.8526477,127.17 22.0995,128.315 C18.8351477,129.67 15.8990227,131.51 13.415625,133.723 C12.6214659,134.43 11.8716364,135.173 11.1755682,135.953 C9.77494318,137.522 8.57804545,139.23 7.61977273,141.051 C7.24910227,141.754 6.91710227,142.476 6.62094318,143.211 C5.96543182,144.833 5.49101136,146.526 5.22220455,148.275 C5.11090909,149 5.04017045,149.734 5.00055682,150.476 C6.09276136,150.667 7.18590909,150.854 8.28,151.028 C12.0263182,151.625 15.7792386,152.122 19.536875,152.505 C19.6981591,152.521 19.8603864,152.537 20.0226136,152.554 C22.0598864,152.76 24.0990455,152.932 26.1382045,153.069 C30.2174659,153.343 34.3005,153.48 38.3825909,153.482 C46.5486591,153.486 54.7137841,152.953 62.8525,151.907 C64.8869432,151.646 66.9204432,151.353 68.9511136,151.028 C70.0404886,150.854 71.1289205,150.671 72.2164091,150.478 C72.1966023,150.107 72.1683068,149.737 72.1315227,149.369 L72.1315227,149.369 Z" id="Shape" fill="#DC2A2C"></path><!--Tshirt-->

            <path d="M62.0234931,13.2116384 C60.5799477,11.8013503 59.0008795,10.5255866 57.3091295,9.40504321 C57.0791977,9.25277941 56.8690613,9.08573271 56.6680613,8.91129456 C56.5789818,7.74861996 57.0533113,6.54455326 56.7502886,5.26065893 C56.6216181,4.71590929 55.8663454,4.54960173 55.4780499,4.93469612 C55.2397431,5.17048327 54.9892545,5.37818293 54.7326749,5.5710997 C54.5134022,4.40177279 54.6519704,3.15705313 55.187209,1.9921611 C55.321209,1.70093809 55.4475954,1.40454107 55.5663681,1.1007526 C55.8267545,0.439957245 54.9846863,0.0171664812 54.4479249,0.266258242 C51.3636409,1.69502493 48.1948454,2.81039427 44.9270727,3.63527975 C43.411959,4.01741755 41.8450727,4.14455044 40.2804704,4.11646294 C39.9317659,4.11054979 39.5815386,4.10981064 39.2297886,4.1157238 C21.9909931,4.40103365 8.05803858,18.1047762 8.05803858,34.9077525 L8.05803858,40.8172143 C8.04128858,40.8593456 8.0093113,40.8829982 8.00778858,40.9428689 C7.96286812,42.7375122 7.1489704,44.3924572 5.47320903,45.1515588 C4.5085613,45.5883933 5.19378858,46.7385025 5.9741863,46.5359768 C6.45232267,46.4110614 6.9144704,46.2543627 7.36367494,46.0747505 C7.00354994,46.8035472 6.56348176,47.4990824 6.01758403,48.1480514 C5.46178858,48.810325 6.13787949,49.658124 6.94035676,49.3085086 C7.2745954,49.1628971 7.6156863,49.0209813 7.95982267,48.8805438 C10.3748681,47.8930465 12.943709,47.3409054 15.5490954,47.073335 C34.4750727,45.1279062 56.5850727,26.9065112 56.5850727,26.9065112 C58.5235045,26.1089741 60.7672431,26.8909892 61.7402659,28.7026328 L69.9812659,46.8782008 L70.948959,39.6146259 C72.2379477,29.9569614 69.0927545,20.121163 62.0234931,13.2116384 L62.0234931,13.2116384 Z" id="Shape" fill="#110c10" transform="translate(38.115785, 24.791990) scale(-1, 1) translate(-38.115785, -24.791990) "></path><!--Hair-->

            <path d="M16.2415341,28.1836716 C15.6705114,23.5320149 16.84225,15.8366119 13.2265341,14.6668806 C10.3059432,13.7218806 9.90318182,16.312403 6.55470455,19.9588806 C8.47867045,18.9978955 10.6843409,19.9880299 11.6467045,22.269194 L19.8877045,45.3911343 L19.8968409,45.3036866 C18.8111364,38.9688955 17.0379205,34.664209 16.2415341,28.1836716 L16.2415341,28.1836716 Z" id="Shape" fill="#110c10" opacity="0.25" transform="translate(13.225773, 29.931098) scale(-1, 1) translate(-13.225773, -29.931098) "></path>
            
            <path d="M36.9182291,83.9086642 C30.4051664,82.7115925 23.6541973,78.9906122 18.4255277,79.0000178 C12.0464755,79.0185526 7,82.3505159 7,84.4620796 C7,93.2267796 10.5633252,101.35772 17.1893181,106.144173 C17.4821838,106.355335 17.869911,106.23829 18.1130874,105.971366 C21.4844312,109.919633 25.2743696,113.1924 29.5461438,115.819303 C30.0633642,116.136305 30.5286368,115.760491 30.6332854,115.208229 C32.5124445,115.573141 34.3577244,115.680819 36.1804183,115.556027 C38.0031122,115.663372 39.8483921,115.53823 41.7267983,115.156408 C41.8321998,115.70622 42.2974724,116.077364 42.8139399,115.755431 C47.0857141,113.100936 50.8756525,109.81904 54.2469963,105.881248 C54.4901727,106.145535 54.8778999,106.259572 55.1707656,106.047913 C61.7967586,101.285518 64.1140868,93.2408916 64.9783795,84.6531877 C65.0130115,84.3150364 65.0280688,82.9227272 64.8473805,82.7916085 C64.7261687,82.6245513 60.0297769,79.1736551 53.3872208,79.1325587 C48.5982263,79.107195 42.801894,84.9904009 36.9182291,83.9086642 Z" id="Shape" fill="#110c10"></path>
            <g id="Group" transform="translate(21.295455, 89.431373)">
                <path d="M0.273522727,0.250764706 L32.1672159,0.250764706 C32.1672159,0.250764706 30.6590682,10.5897647 15.4493182,10.5532549 C1.65245455,10.5196275 0.273522727,0.250764706 0.273522727,0.250764706 L0.273522727,0.250764706 Z" id="Shape" fill="#FCD0A3"></path>
                <path d="M13.4988182,5.00088235 C11.6266023,5.19496078 7.10404545,6.77160784 5.26672727,7.77082353 C7.52093182,9.34266667 10.7598182,10.5426863 15.4493182,10.5532549 C21.0735114,10.5667059 24.8009659,9.15627451 27.2937955,7.37978431 C26.8721932,7.0252549 22.3741591,4.08333333 13.4988182,5.00088235 L13.4988182,5.00088235 Z" id="Shape" fill="#F7B6AF"></path>
            </g>
            <g id="Group" transform="translate(7.147727, 61.490196)" fill="#FCD0A3" opacity="0.29">
                <path d="M52.8030909,0.731156863 C52.0400568,0.603372549 51.4307614,0.528431373 51.1996818,0.50345098 C46.6790114,0.00960784314 41.0925455,-0.339156863 37.443375,2.96209804 C36.2926932,4.00358824 36.7227841,5.42939216 38.2262159,5.77143137 C38.8043864,5.90401961 39.4061364,5.84637255 39.995625,5.78968627 C45.2170795,5.28143137 50.4064659,4.71360784 55.6458409,4.31776471 C57.0049659,4.21496078 58.5527273,3.45401961 57.3916705,2.12141176 C56.5163977,1.11547059 54.0141364,0.932921569 52.8030909,0.731156863 L52.8030909,0.731156863 Z" id="Shape"></path>
                <path d="M5.27332955,0.731156863 C6.03636364,0.603372549 6.64565909,0.528431373 6.87673864,0.50345098 C11.3974091,0.00960784314 16.9848182,-0.339156863 20.6330455,2.96209804 C21.7837273,4.00358824 21.3536364,5.42939216 19.8502045,5.77143137 C19.2720341,5.90401961 18.6702841,5.84637255 18.0807955,5.78968627 C12.8593409,5.28143137 7.66901136,4.71360784 2.43057955,4.31776471 C1.07239773,4.21496078 -0.476306818,3.45401961 0.68475,2.12141176 C1.56096591,1.11547059 4.06228409,0.932921569 5.27332955,0.731156863 L5.27332955,0.731156863 Z" id="Shape"></path>
            </g>
            <g id="Group" transform="translate(16.522727, 52.843137)">
                <g transform="translate(32.068182, 0.000000)">
                    <g transform="translate(-0.000000, 0.000000)">
                        <ellipse id="Oval" fill="#67657B" cx="3.87270455" cy="3.81719608" rx="3.143625" ry="3.20229412"></ellipse>
                        <ellipse id="Oval" fill="#8E8D9C" cx="3.87270455" cy="3.81719608" rx="2.92763636" ry="2.98227451"></ellipse>
                        <polygon id="Shape" fill="#5F5D73" points="1.41665909 2.43654902 2.68335227 3.06009804 1.577 2.1742549 2.76918182 2.93327451 1.76469318 1.93021569 2.87010227 2.81701961 1.97785227 1.71019608 2.98234091 2.7132549 2.21270455 1.51419608 3.10495455 2.62101961 2.46642045 1.34413725 3.237 2.54415686 2.73711364 1.20386275 3.37564773 2.4807451 3.02195455 1.09433333 3.51995455 2.43462745 3.31622727 1.0165098 3.66897727 2.40292157 3.61615909 0.971352941 3.81988636 2.38947059 3.91986364 0.959823529 3.97173864 2.39235294 4.222625 0.981921569 4.12264773 2.41156863 4.52161364 1.03764706 4.26978409 2.44711765 4.81211364 1.12507843 4.41409091 2.499 5.09318182 1.24421569 4.54990909 2.5662549 5.35915909 1.39409804 4.679125 2.64792157 5.60721591 1.57184314 4.79890909 2.744 5.83546591 1.7764902 4.90643182 2.85256863 6.04107955 2.00419608 5.00357955 2.97170588 6.22122727 2.254 5.08657955 3.10141176 6.37307955 2.52109804 5.15543182 3.23976471 6.49663636 2.80452941 5.20825 3.38388235 6.588125 3.0994902 5.24692045 3.53376471 6.64848864 3.40213725 5.26955682 3.68652941 6.67584091 3.7115098 5.27521591 3.84121569 6.67018182 4.02088235 5.26389773 3.99686275 6.63245455 4.32737255 5.23748864 4.14866667 6.56265909 4.62905882 5.19410227 4.29662745 6.46079545 4.92017647 5.13468182 4.43978431 6.32875 5.19880392 5.06205682 4.57429412 6.16746591 5.46109804 4.97434091 4.70111765 5.97977273 5.70417647 4.87436364 4.81737255 5.76661364 5.92515686 4.762125 4.92209804 5.53176136 6.12211765 4.63951136 5.01337255 5.27804545 6.2902549 4.50840909 5.09119608 5.00735227 6.4314902 4.36976136 5.15364706 4.72345455 6.54101961 4.22451136 5.20072549 4.42918182 6.61884314 4.07548864 5.23147059 4.12830682 6.664 3.92457955 5.24492157 3.82554545 6.67552941 3.77272727 5.24203922 3.52184091 6.65247059 3.62181818 5.22378431 3.22285227 6.59866667 3.47468182 5.18823529 2.93140909 6.51027451 3.33131818 5.13539216 2.65128409 6.39113725 3.19455682 5.06909804 2.38530682 6.2412549 3.06534091 4.98647059 2.13725 6.0635098 2.9465 4.89039216 1.90805682 5.85886275 2.83803409 4.78278431 1.70432955 5.63115686 2.74088636 4.66268627 1.52418182 5.38135294 2.65788636 4.53298039 1.37138636 5.11329412 2.58903409 4.39558824 1.24877273 4.83082353 2.53527273 4.2505098 1.15728409 4.53586275 2.49754545 4.10158824 1.09692045 4.2322549 2.47585227 3.94786275 1.068625 3.92384314 2.46925 3.79413725 1.07428409 3.61447059 2.48056818 3.63945098 1.11201136 3.30798039 2.50792045 3.48668627 1.18180682 3.00629412 2.55036364 3.33872549 1.28367045 2.71517647 2.60978409 3.19652941"></polygon>
                    </g>
                    <g transform="translate(1.886364, 1.921569)">
                        <ellipse id="Oval" fill="#1D1A3A" opacity="0.35" cx="1.99577273" cy="1.89562745" rx="1.49682955" ry="1.52476471"></ellipse>
                        <path d="M2.91631818,1.21058824 C2.91726136,1.20194118 2.92103409,1.1942549 2.92103409,1.18656863 C2.92103409,0.926196078 2.71447727,0.715784314 2.458875,0.715784314 C2.20327273,0.715784314 1.99671591,0.926196078 1.99671591,1.18656863 C1.99671591,1.44694118 2.20421591,1.65735294 2.458875,1.65735294 C2.49754545,1.65735294 2.53244318,1.64294118 2.56828409,1.6352549 C2.60223864,1.64966667 2.63807955,1.65735294 2.67675,1.65735294 C2.83614773,1.65735294 2.96536364,1.52572549 2.96536364,1.36335294 C2.96442045,1.30666667 2.94461364,1.2557451 2.91631818,1.21058824 L2.91631818,1.21058824 Z" id="Shape" fill="#FFFFFF"></path>
                    </g>
                </g>
                <g>
                    <g>
                        <ellipse id="Oval" fill="#67657B" cx="3.55202273" cy="3.81719608" rx="3.143625" ry="3.20229412"></ellipse>
                        <ellipse id="Oval" fill="#8E8D9C" cx="3.55202273" cy="3.81719608" rx="2.92763636" ry="2.98227451"></ellipse>
                        <polygon id="Shape" fill="#5F5D73" points="1.09597727 2.43654902 2.36172727 3.06009804 1.25631818 2.1742549 2.44944318 2.93327451 1.44401136 1.93021569 2.54942045 2.81701961 1.65717045 1.71019608 2.66165909 2.7132549 1.89202273 1.51419608 2.78427273 2.62101961 2.14573864 1.34413725 2.915375 2.54415686 2.41643182 1.20386275 3.05402273 2.4807451 2.70127273 1.09433333 3.19927273 2.43462745 2.99460227 1.0165098 3.34829545 2.40292157 3.29547727 0.971352941 3.49920455 2.38947059 3.59918182 0.959823529 3.65105682 2.39235294 3.90194318 0.981921569 3.80196591 2.41156863 4.20093182 1.03764706 3.94910227 2.44711765 4.492375 1.12507843 4.09246591 2.499 4.7725 1.24421569 4.22922727 2.5662549 5.03847727 1.39409804 4.35844318 2.64792157 5.28653409 1.57184314 4.47728409 2.744 5.51572727 1.7764902 4.58575 2.85256863 5.72039773 2.00419608 4.68289773 2.97170588 5.89960227 2.254 4.76589773 3.10141176 6.05239773 2.52109804 4.83475 3.23976471 6.17501136 2.80452941 4.88851136 3.38388235 6.26744318 3.0994902 4.92623864 3.53376471 6.32686364 3.40213725 4.948875 3.68652941 6.35515909 3.7115098 4.95453409 3.84121569 6.35044318 4.02088235 4.94321591 3.99686275 6.31177273 4.32737255 4.91586364 4.14866667 6.24197727 4.62905882 4.87342045 4.29662745 6.14011364 4.92017647 4.814 4.43978431 6.00806818 5.19880392 4.741375 4.57429412 5.84678409 5.46109804 4.65365909 4.70111765 5.65909091 5.70417647 4.55368182 4.81737255 5.44593182 5.92515686 4.44144318 4.92209804 5.21107955 6.12211765 4.31977273 5.01337255 4.95736364 6.2902549 4.18772727 5.09119608 4.68667045 6.4314902 4.04813636 5.15364706 4.40182955 6.54101961 3.90382955 5.20072549 4.1085 6.61884314 3.75480682 5.23147059 3.807625 6.664 3.60389773 5.24492157 3.50392045 6.67552941 3.45204545 5.24203922 3.20115909 6.65247059 3.30113636 5.22378431 2.90217045 6.59866667 3.154 5.18823529 2.61072727 6.51027451 3.01063636 5.13539216 2.33060227 6.39113725 2.873875 5.06909804 2.064625 6.2412549 2.74465909 4.98647059 1.81656818 6.0635098 2.62581818 4.89039216 1.58831818 5.85886275 2.51735227 4.78278431 1.38270455 5.63115686 2.42020455 4.66268627 1.2035 5.38135294 2.33720455 4.53298039 1.05070455 5.11329412 2.26835227 4.39558824 0.928090909 4.83082353 2.21553409 4.2505098 0.835659091 4.53586275 2.17686364 4.10158824 0.775295455 4.2322549 2.15517045 3.94786275 0.747943182 3.92384314 2.14856818 3.79413725 0.753602273 3.61447059 2.15988636 3.63945098 0.791329545 3.30798039 2.18723864 3.48668627 0.861125 3.00629412 2.22968182 3.33872549 0.962988636 2.71517647 2.28910227 3.19652941"></polygon>
                    </g>
                    <g transform="translate(1.886364, 1.921569)">
                        <ellipse id="Oval" fill="#1D1A3A" opacity="0.35" cx="1.67509091" cy="1.89562745" rx="1.49682955" ry="1.52476471"></ellipse>
                        <path d="M2.59563636,1.21058824 C2.59563636,1.20194118 2.60035227,1.1942549 2.60035227,1.18656863 C2.60035227,0.926196078 2.39379545,0.715784314 2.13819318,0.715784314 C1.88259091,0.715784314 1.67603409,0.926196078 1.67603409,1.18656863 C1.67603409,1.44694118 1.88353409,1.65735294 2.13819318,1.65735294 C2.17686364,1.65735294 2.21176136,1.64294118 2.24760227,1.6352549 C2.28155682,1.64966667 2.31834091,1.65735294 2.35701136,1.65735294 C2.51546591,1.65735294 2.64468182,1.52572549 2.64468182,1.36335294 C2.64373864,1.30666667 2.62393182,1.2557451 2.59563636,1.21058824 L2.59563636,1.21058824 Z" id="Shape" fill="#FFFFFF"></path>
                    </g>
                </g>
            </g>
            <path d="M61.5173644,49.0951176 L44.2364149,49.0951176 C41.0712725,49.0951176 38.4960915,51.6114118 38.4960915,54.7032157 L38.4960915,55.7274118 L33.0173176,55.7274118 L33.0173176,54.7032157 C33.0173176,51.6114118 30.4421366,49.0951176 27.2769942,49.0951176 L9.99702793,49.0951176 C6.83188559,49.0951176 4.25670455,51.6114118 4.25670455,54.7032157 L4.25670455,58.6184118 C4.25670455,61.7102157 6.83188559,64.2274706 9.99702793,64.2274706 L27.2769942,64.2274706 C30.4421366,64.2274706 33.0173176,61.7102157 33.0173176,58.6184118 L33.0173176,57.5951765 L38.4960915,57.5951765 L38.4960915,58.6184118 C38.4960915,61.7102157 41.0712725,64.2274706 44.2364149,64.2274706 L61.5163812,64.2274706 C64.6815235,64.2274706 67.2567045,61.7102157 67.2567045,58.6184118 L67.2567045,54.7032157 C67.2567045,51.6114118 64.6815235,49.0951176 61.5173644,49.0951176 L61.5173644,49.0951176 Z M31.05078,58.6184118 C31.05078,60.6514314 29.357591,62.305902 27.2769942,62.305902 L9.99702793,62.305902 C7.9164311,62.305902 6.22324219,60.6514314 6.22324219,58.6184118 L6.22324219,54.7032157 C6.22324219,52.6711569 7.9164311,51.0166863 9.99702793,51.0166863 L27.2769942,51.0166863 C29.357591,51.0166863 31.05078,52.6711569 31.05078,54.7032157 L31.05078,58.6184118 L31.05078,58.6184118 Z M65.2901669,58.6184118 C65.2901669,60.6514314 63.596978,62.305902 61.5163812,62.305902 L44.2364149,62.305902 C42.155818,62.305902 40.4626291,60.6514314 40.4626291,58.6184118 L40.4626291,54.7032157 C40.4626291,52.6711569 42.155818,51.0166863 44.2364149,51.0166863 L61.5163812,51.0166863 C63.596978,51.0166863 65.2901669,52.6711569 65.2901669,54.7032157 L65.2901669,58.6184118 L65.2901669,58.6184118 Z" id="Shape" fill="#3A4246" opacity="0.754256063"></path>
        </g>
    </g>
</svg>